<svg xmlns="http://www.w3.org/2000/svg" xmlns:xlink="http://www.w3.org/1999/xlink" width="64" zoomAndPan="magnify" viewBox="0 0 48 48" height="64" preserveAspectRatio="xMidYMid meet" version="1.0"><defs><clipPath id="f92b664676"><path d="M 0.488281 0 L 47.507812 0 L 47.507812 47.019531 L 0.488281 47.019531 Z M 0.488281 0 " clip-rule="nonzero"/></clipPath><clipPath id="9211af1988"><path d="M 3.417969 15 L 44.558594 15 L 44.558594 46 L 3.417969 46 Z M 3.417969 15 " clip-rule="nonzero"/></clipPath><clipPath id="2b2cb70dac"><path d="M 7 0.152344 L 44.558594 0.152344 L 44.558594 35 L 7 35 Z M 7 0.152344 " clip-rule="nonzero"/></clipPath><clipPath id="7ecd11a036"><path d="M 11 12.226562 L 41.324219 12.226562 L 41.324219 35 L 11 35 Z M 11 12.226562 " clip-rule="nonzero"/></clipPath><clipPath id="680bab15b6"><path d="M 17 12.226562 L 41.324219 12.226562 L 41.324219 26 L 17 26 Z M 17 12.226562 " clip-rule="nonzero"/></clipPath><clipPath id="d38292319a"><path d="M 6.792969 26 L 16 26 L 16 32 L 6.792969 32 Z M 6.792969 26 " clip-rule="nonzero"/></clipPath></defs><g clip-path="url(#f92b664676)"><path fill="#ffffff" d="M 0.488281 0 L 47.511719 0 L 47.511719 47.019531 L 0.488281 47.019531 Z M 0.488281 0 " fill-opacity="1" fill-rule="nonzero"/><path fill="#ffffff" d="M 0.488281 0 L 47.511719 0 L 47.511719 47.019531 L 0.488281 47.019531 Z M 0.488281 0 " fill-opacity="1" fill-rule="nonzero"/></g><g clip-path="url(#9211af1988)"><path fill="#ce181e" d="M 26.457031 45.859375 C 28.582031 45.859375 30.507812 45.671875 32.246094 45.3125 C 33.976562 44.945312 35.566406 44.421875 37.007812 43.738281 C 38.449219 43.050781 39.785156 42.222656 41.027344 41.253906 C 42.257812 40.285156 43.445312 39.191406 44.570312 37.96875 L 38.386719 31.726562 C 22.519531 46.847656 4.125 35.984375 4.894531 15.820312 C 3.417969 20.449219 3.433594 25.75 4.90625 30.375 C 5.640625 32.648438 6.683594 34.730469 8.03125 36.613281 C 9.386719 38.507812 10.996094 40.136719 12.867188 41.515625 C 14.738281 42.894531 16.824219 43.957031 19.105469 44.714844 C 21.398438 45.46875 23.847656 45.847656 26.457031 45.859375 " fill-opacity="1" fill-rule="nonzero"/></g><g clip-path="url(#2b2cb70dac)"><path fill="#c1c5c9" d="M 19.929688 34.875 C 19.042969 34.292969 18.242188 33.597656 17.527344 32.796875 C 16.390625 31.523438 15.519531 30.050781 14.898438 28.378906 C 13.644531 25 13.632812 20.917969 14.921875 17.542969 C 15.539062 15.882812 16.433594 14.429688 17.570312 13.167969 C 18.71875 11.90625 20.074219 10.929688 21.628906 10.214844 C 23.1875 9.496094 24.902344 9.140625 26.773438 9.128906 C 28.234375 9.128906 29.613281 9.328125 30.90625 9.730469 C 32.199219 10.128906 33.433594 10.707031 34.609375 11.445312 C 35.789062 12.191406 36.933594 13.074219 38.070312 14.117188 L 44.257812 6.984375 C 42.898438 5.628906 41.402344 4.4375 39.765625 3.417969 C 38.125 2.398438 36.253906 1.609375 34.148438 1.042969 C 32.035156 0.460938 29.601562 0.179688 26.835938 0.167969 C 14.703125 0.214844 4.207031 10.105469 7.921875 23.144531 C 9.558594 28.886719 13.667969 33.933594 19.929688 34.875 Z M 19.929688 34.875 " fill-opacity="1" fill-rule="nonzero"/></g><path fill="#0a0203" d="M 17.898438 33.738281 C 17.824219 33.738281 17.753906 33.71875 17.691406 33.683594 C 17.542969 33.605469 17.46875 33.480469 17.46875 33.316406 L 17.46875 25.246094 C 17.46875 25.128906 17.507812 25.03125 17.589844 24.949219 C 17.671875 24.863281 17.773438 24.824219 17.890625 24.824219 C 18.007812 24.824219 18.105469 24.863281 18.191406 24.949219 C 18.273438 25.03125 18.3125 25.128906 18.3125 25.246094 L 18.3125 32.558594 L 22.707031 29.859375 C 22.804688 29.800781 22.910156 29.78125 23.027344 29.808594 C 23.140625 29.835938 23.226562 29.898438 23.289062 30 C 23.351562 30.097656 23.367188 30.207031 23.339844 30.320312 C 23.3125 30.433594 23.25 30.523438 23.152344 30.582031 L 18.117188 33.675781 C 18.050781 33.714844 17.976562 33.738281 17.898438 33.738281 Z M 17.898438 33.738281 " fill-opacity="1" fill-rule="nonzero"/><g clip-path="url(#7ecd11a036)"><path fill="#0a0203" d="M 27.589844 34.792969 C 27.480469 34.792969 27.382812 34.757812 27.300781 34.679688 L 11.351562 19.667969 C 11.230469 19.550781 11.191406 19.410156 11.234375 19.25 C 11.277344 19.085938 11.382812 18.984375 11.546875 18.945312 L 40.671875 12.238281 C 40.851562 12.203125 40.996094 12.257812 41.101562 12.40625 C 41.207031 12.558594 41.210938 12.710938 41.117188 12.867188 L 27.949219 34.589844 C 27.878906 34.707031 27.777344 34.773438 27.644531 34.792969 Z M 12.507812 19.59375 L 27.503906 33.703125 L 39.878906 13.285156 Z M 12.507812 19.59375 " fill-opacity="1" fill-rule="nonzero"/></g><g clip-path="url(#680bab15b6)"><path fill="#0a0203" d="M 17.898438 25.671875 C 17.675781 25.671875 17.539062 25.566406 17.484375 25.351562 C 17.429688 25.140625 17.5 24.980469 17.691406 24.875 L 40.558594 12.277344 C 40.660156 12.210938 40.769531 12.195312 40.890625 12.222656 C 41.007812 12.253906 41.097656 12.324219 41.15625 12.429688 C 41.214844 12.539062 41.226562 12.648438 41.1875 12.765625 C 41.152344 12.882812 41.078125 12.96875 40.964844 13.019531 L 18.101562 25.617188 C 18.035156 25.652344 17.96875 25.667969 17.898438 25.671875 Z M 17.898438 25.671875 " fill-opacity="1" fill-rule="nonzero"/></g><g clip-path="url(#d38292319a)"><path fill="#ce181e" d="M 7.230469 31.480469 C 7.007812 31.480469 6.875 31.375 6.820312 31.160156 C 6.765625 30.949219 6.835938 30.789062 7.027344 30.683594 L 14.960938 26.390625 C 15.0625 26.34375 15.167969 26.339844 15.273438 26.375 C 15.378906 26.410156 15.460938 26.476562 15.511719 26.574219 C 15.566406 26.671875 15.578125 26.777344 15.550781 26.886719 C 15.519531 26.992188 15.457031 27.078125 15.363281 27.136719 L 7.429688 31.429688 C 7.367188 31.464844 7.300781 31.480469 7.230469 31.480469 Z M 7.230469 31.480469 " fill-opacity="1" fill-rule="nonzero"/></g><path fill="#ce181e" d="M 10.90625 32.757812 C 10.6875 32.757812 10.554688 32.652344 10.5 32.441406 C 10.445312 32.230469 10.511719 32.074219 10.699219 31.964844 L 14.753906 29.6875 C 14.855469 29.625 14.964844 29.609375 15.082031 29.636719 C 15.199219 29.667969 15.285156 29.734375 15.34375 29.839844 C 15.402344 29.945312 15.414062 30.054688 15.378906 30.171875 C 15.347656 30.285156 15.273438 30.371094 15.167969 30.425781 L 11.113281 32.703125 C 11.046875 32.738281 10.980469 32.757812 10.90625 32.757812 Z M 10.90625 32.757812 " fill-opacity="1" fill-rule="nonzero"/><path fill="#ce181e" d="M 14.210938 33.738281 C 13.992188 33.738281 13.855469 33.628906 13.800781 33.417969 C 13.746094 33.207031 13.816406 33.046875 14.007812 32.941406 L 14.960938 32.429688 C 15.058594 32.390625 15.160156 32.386719 15.261719 32.425781 C 15.363281 32.460938 15.441406 32.527344 15.492188 32.621094 C 15.542969 32.714844 15.554688 32.816406 15.53125 32.921875 C 15.507812 33.023438 15.449219 33.109375 15.363281 33.167969 L 14.410156 33.679688 C 14.347656 33.71875 14.28125 33.734375 14.210938 33.738281 Z M 14.210938 33.738281 " fill-opacity="1" fill-rule="nonzero"/></svg>