<svg xmlns="http://www.w3.org/2000/svg" xmlns:xlink="http://www.w3.org/1999/xlink" width="64" zoomAndPan="magnify" viewBox="0 0 48 48" height="64" preserveAspectRatio="xMidYMid meet" version="1.0"><defs><g/><clipPath id="e8d3df1ed9"><path d="M 0.488281 0 L 47.507812 0 L 47.507812 47.019531 L 0.488281 47.019531 Z M 0.488281 0 " clip-rule="nonzero"/></clipPath><clipPath id="10f409b13d"><path d="M 43 33 L 47.507812 33 L 47.507812 37 L 43 37 Z M 43 33 " clip-rule="nonzero"/></clipPath><clipPath id="7b9015412f"><path d="M 13.113281 13 L 35 13 L 35 30 L 13.113281 30 Z M 13.113281 13 " clip-rule="nonzero"/></clipPath><clipPath id="5267989fef"><path d="M 15 5.121094 L 35 5.121094 L 35 24 L 15 24 Z M 15 5.121094 " clip-rule="nonzero"/></clipPath><clipPath id="8f7fd22380"><path d="M 17 11.507812 L 33.265625 11.507812 L 33.265625 23.261719 L 17 23.261719 Z M 17 11.507812 " clip-rule="nonzero"/></clipPath><clipPath id="292c72e520"><path d="M 20 11.507812 L 33.265625 11.507812 L 33.265625 19 L 20 19 Z M 20 11.507812 " clip-rule="nonzero"/></clipPath><clipPath id="bf2d577b0b"><path d="M 14.898438 18 L 20 18 L 20 22 L 14.898438 22 Z M 14.898438 18 " clip-rule="nonzero"/></clipPath></defs><g clip-path="url(#e8d3df1ed9)"><path fill="#ffffff" d="M 0.488281 0 L 47.511719 0 L 47.511719 47.019531 L 0.488281 47.019531 Z M 0.488281 0 " fill-opacity="1" fill-rule="nonzero"/><path fill="#fafafd" d="M 0.488281 0 L 47.511719 0 L 47.511719 47.019531 L 0.488281 47.019531 Z M 0.488281 0 " fill-opacity="1" fill-rule="nonzero"/></g><g fill="#ce181e" fill-opacity="1"><g transform="translate(0.709239, 36.538695)"><g><path d="M 3.46875 -3.265625 C 3.4375 -3.503906 3.347656 -3.671875 3.203125 -3.765625 C 3.054688 -3.867188 2.890625 -3.921875 2.703125 -3.921875 C 2.359375 -3.921875 2.097656 -3.785156 1.921875 -3.515625 C 1.742188 -3.253906 1.65625 -2.859375 1.65625 -2.328125 C 1.65625 -1.835938 1.738281 -1.460938 1.90625 -1.203125 C 2.082031 -0.953125 2.34375 -0.828125 2.6875 -0.828125 C 3.15625 -0.828125 3.421875 -1.054688 3.484375 -1.515625 L 4.859375 -1.515625 C 4.859375 -0.984375 4.664062 -0.582031 4.28125 -0.3125 C 3.90625 -0.0390625 3.378906 0.09375 2.703125 0.09375 C 1.898438 0.09375 1.296875 -0.117188 0.890625 -0.546875 C 0.492188 -0.972656 0.296875 -1.570312 0.296875 -2.34375 C 0.296875 -3.09375 0.492188 -3.695312 0.890625 -4.15625 C 1.285156 -4.625 1.890625 -4.859375 2.703125 -4.859375 C 3.359375 -4.859375 3.875 -4.71875 4.25 -4.4375 C 4.632812 -4.15625 4.828125 -3.765625 4.828125 -3.265625 Z M 3.46875 -3.265625 "/></g></g></g><g fill="#ce181e" fill-opacity="1"><g transform="translate(5.6175, 36.538695)"><g><path d="M 3.625 -2.203125 L 3.625 -0.59375 C 3.625 -0.519531 3.628906 -0.429688 3.640625 -0.328125 C 3.648438 -0.234375 3.664062 -0.125 3.6875 0 L 2.5 0 C 2.488281 -0.0625 2.476562 -0.125 2.46875 -0.1875 C 2.46875 -0.257812 2.46875 -0.351562 2.46875 -0.46875 C 2.332031 -0.257812 2.171875 -0.117188 1.984375 -0.046875 C 1.796875 0.0234375 1.59375 0.0625 1.375 0.0625 C 0.988281 0.0625 0.695312 -0.0234375 0.5 -0.203125 C 0.3125 -0.390625 0.21875 -0.644531 0.21875 -0.96875 C 0.21875 -1.34375 0.375 -1.628906 0.6875 -1.828125 C 1 -2.035156 1.519531 -2.140625 2.25 -2.140625 C 2.320312 -2.140625 2.394531 -2.140625 2.46875 -2.140625 L 2.46875 -2.203125 C 2.46875 -2.441406 2.429688 -2.601562 2.359375 -2.6875 C 2.296875 -2.78125 2.195312 -2.828125 2.0625 -2.828125 C 1.945312 -2.828125 1.84375 -2.785156 1.75 -2.703125 C 1.65625 -2.628906 1.609375 -2.507812 1.609375 -2.34375 L 1.609375 -2.328125 L 0.421875 -2.328125 C 0.421875 -2.710938 0.570312 -2.988281 0.875 -3.15625 C 1.1875 -3.332031 1.566406 -3.421875 2.015625 -3.421875 C 2.535156 -3.421875 2.929688 -3.328125 3.203125 -3.140625 C 3.484375 -2.960938 3.625 -2.648438 3.625 -2.203125 Z M 1.890625 -0.625 C 2.035156 -0.625 2.148438 -0.664062 2.234375 -0.75 C 2.328125 -0.84375 2.390625 -0.941406 2.421875 -1.046875 C 2.453125 -1.148438 2.46875 -1.320312 2.46875 -1.5625 L 2.359375 -1.5625 C 2.023438 -1.5625 1.785156 -1.523438 1.640625 -1.453125 C 1.503906 -1.378906 1.4375 -1.253906 1.4375 -1.078125 C 1.4375 -0.953125 1.472656 -0.84375 1.546875 -0.75 C 1.617188 -0.664062 1.734375 -0.625 1.890625 -0.625 Z M 1.890625 -0.625 "/></g></g></g><g fill="#ce181e" fill-opacity="1"><g transform="translate(9.425516, 36.538695)"><g><path d="M 1.734375 -4.75 L 1.734375 -3.859375 L 0.46875 -3.859375 L 0.46875 -4.75 Z M 1.734375 -3.3125 L 1.734375 0.25 C 1.734375 0.613281 1.644531 0.878906 1.46875 1.046875 C 1.300781 1.210938 0.953125 1.296875 0.421875 1.296875 L 0.03125 1.28125 L 0.03125 0.46875 C 0.0507812 0.46875 0.0664062 0.46875 0.078125 0.46875 L 0.140625 0.46875 C 0.242188 0.46875 0.320312 0.4375 0.375 0.375 C 0.4375 0.3125 0.46875 0.179688 0.46875 -0.015625 L 0.46875 -3.3125 Z M 1.734375 -3.3125 "/></g></g></g><g fill="#ce181e" fill-opacity="1"><g transform="translate(11.401984, 36.538695)"><g><path d="M 3.90625 -3.3125 L 3.90625 -0.640625 C 3.90625 -0.566406 3.914062 -0.351562 3.9375 0 L 2.703125 0 L 2.6875 -0.515625 C 2.539062 -0.296875 2.382812 -0.144531 2.21875 -0.0625 C 2.050781 0.0195312 1.859375 0.0625 1.640625 0.0625 C 1.222656 0.0625 0.914062 -0.0507812 0.71875 -0.28125 C 0.519531 -0.507812 0.421875 -0.875 0.421875 -1.375 L 0.421875 -3.3125 L 1.65625 -3.3125 L 1.65625 -1.359375 C 1.65625 -1.128906 1.695312 -0.96875 1.78125 -0.875 C 1.875 -0.78125 2 -0.734375 2.15625 -0.734375 C 2.320312 -0.734375 2.445312 -0.78125 2.53125 -0.875 C 2.625 -0.976562 2.671875 -1.144531 2.671875 -1.375 L 2.671875 -3.3125 Z M 3.90625 -3.3125 "/></g></g></g><g fill="#ce181e" fill-opacity="1"><g transform="translate(15.578943, 36.538695)"><g><path d="M 3.953125 -2.0625 L 3.953125 0 L 2.71875 0 L 2.71875 -1.96875 C 2.71875 -2.382812 2.546875 -2.59375 2.203125 -2.59375 C 2.023438 -2.59375 1.890625 -2.535156 1.796875 -2.421875 C 1.703125 -2.304688 1.65625 -2.132812 1.65625 -1.90625 L 1.65625 0 L 0.421875 0 L 0.421875 -2.6875 L 0.390625 -3.3125 L 1.625 -3.3125 L 1.640625 -3.046875 L 1.640625 -2.796875 C 1.765625 -3.015625 1.914062 -3.164062 2.09375 -3.25 C 2.269531 -3.332031 2.488281 -3.375 2.75 -3.375 C 3.144531 -3.375 3.441406 -3.273438 3.640625 -3.078125 C 3.847656 -2.878906 3.953125 -2.539062 3.953125 -2.0625 Z M 3.953125 -2.0625 "/></g></g></g><g fill="#ce181e" fill-opacity="1"><g transform="translate(19.755903, 36.538695)"><g/></g></g><g fill="#ce181e" fill-opacity="1"><g transform="translate(21.732372, 36.538695)"><g><path d="M 3.546875 -4.765625 L 5.421875 0 L 3.9375 0 L 3.59375 -0.953125 L 1.6875 -0.953125 L 1.375 0 L 0.046875 0 L 1.9375 -4.765625 Z M 2.65625 -3.828125 L 2 -1.828125 L 3.296875 -1.828125 L 2.6875 -3.828125 Z M 2.65625 -3.828125 "/></g></g></g><g fill="#ce181e" fill-opacity="1"><g transform="translate(27.00299, 36.538695)"><g><path d="M 1.703125 -4.75 L 1.703125 -3.859375 L 0.4375 -3.859375 L 0.4375 -4.75 Z M 1.6875 -3.3125 L 1.6875 0 L 0.453125 0 L 0.453125 -3.3125 Z M 1.6875 -3.3125 "/></g></g></g><g fill="#ce181e" fill-opacity="1"><g transform="translate(28.979459, 36.538695)"><g><path d="M 2.796875 -2.28125 L 2.65625 -2.296875 L 2.53125 -2.296875 C 2.226562 -2.296875 2.007812 -2.210938 1.875 -2.046875 C 1.738281 -1.890625 1.671875 -1.679688 1.671875 -1.421875 L 1.671875 0 L 0.4375 0 L 0.4375 -2.515625 C 0.4375 -2.617188 0.429688 -2.742188 0.421875 -2.890625 C 0.421875 -3.046875 0.414062 -3.1875 0.40625 -3.3125 L 1.609375 -3.3125 C 1.628906 -2.96875 1.640625 -2.738281 1.640625 -2.625 C 1.722656 -2.851562 1.847656 -3.03125 2.015625 -3.15625 C 2.179688 -3.28125 2.40625 -3.34375 2.6875 -3.34375 L 2.796875 -3.34375 Z M 2.796875 -2.28125 "/></g></g></g><g fill="#ce181e" fill-opacity="1"><g transform="translate(31.687228, 36.538695)"><g><path d="M 1.6875 -4.765625 L 1.6875 0 L 0.453125 0 L 0.453125 -4.765625 Z M 1.6875 -4.765625 "/></g></g></g><g fill="#ce181e" fill-opacity="1"><g transform="translate(33.663695, 36.538695)"><g><path d="M 1.703125 -4.75 L 1.703125 -3.859375 L 0.4375 -3.859375 L 0.4375 -4.75 Z M 1.6875 -3.3125 L 1.6875 0 L 0.453125 0 L 0.453125 -3.3125 Z M 1.6875 -3.3125 "/></g></g></g><g fill="#ce181e" fill-opacity="1"><g transform="translate(35.640162, 36.538695)"><g><path d="M 3.953125 -2.0625 L 3.953125 0 L 2.71875 0 L 2.71875 -1.96875 C 2.71875 -2.382812 2.546875 -2.59375 2.203125 -2.59375 C 2.023438 -2.59375 1.890625 -2.535156 1.796875 -2.421875 C 1.703125 -2.304688 1.65625 -2.132812 1.65625 -1.90625 L 1.65625 0 L 0.421875 0 L 0.421875 -2.6875 L 0.390625 -3.3125 L 1.625 -3.3125 L 1.640625 -3.046875 L 1.640625 -2.796875 C 1.765625 -3.015625 1.914062 -3.164062 2.09375 -3.25 C 2.269531 -3.332031 2.488281 -3.375 2.75 -3.375 C 3.144531 -3.375 3.441406 -3.273438 3.640625 -3.078125 C 3.847656 -2.878906 3.953125 -2.539062 3.953125 -2.0625 Z M 3.953125 -2.0625 "/></g></g></g><g fill="#ce181e" fill-opacity="1"><g transform="translate(39.81712, 36.538695)"><g><path d="M 3.765625 -1.5625 L 3.765625 -1.40625 L 1.390625 -1.40625 L 1.390625 -1.375 C 1.390625 -1.125 1.441406 -0.929688 1.546875 -0.796875 C 1.648438 -0.660156 1.8125 -0.59375 2.03125 -0.59375 C 2.195312 -0.59375 2.328125 -0.632812 2.421875 -0.71875 C 2.515625 -0.800781 2.570312 -0.921875 2.59375 -1.078125 L 3.75 -1.078125 C 3.707031 -0.722656 3.535156 -0.441406 3.234375 -0.234375 C 2.929688 -0.0234375 2.523438 0.078125 2.015625 0.078125 C 1.429688 0.078125 0.988281 -0.0625 0.6875 -0.34375 C 0.394531 -0.625 0.25 -1.046875 0.25 -1.609375 C 0.25 -2.203125 0.394531 -2.648438 0.6875 -2.953125 C 0.988281 -3.265625 1.425781 -3.421875 2 -3.421875 C 2.582031 -3.421875 3.019531 -3.269531 3.3125 -2.96875 C 3.613281 -2.664062 3.765625 -2.195312 3.765625 -1.5625 Z M 2.59375 -2.078125 C 2.582031 -2.316406 2.523438 -2.488281 2.421875 -2.59375 C 2.328125 -2.707031 2.1875 -2.765625 2 -2.765625 C 1.820312 -2.765625 1.679688 -2.707031 1.578125 -2.59375 C 1.484375 -2.488281 1.425781 -2.316406 1.40625 -2.078125 Z M 2.59375 -2.078125 "/></g></g></g><g clip-path="url(#10f409b13d)"><g fill="#ce181e" fill-opacity="1"><g transform="translate(43.625134, 36.538695)"><g><path d="M 3.34375 -2.28125 L 2.171875 -2.28125 L 2.171875 -2.328125 C 2.171875 -2.492188 2.140625 -2.613281 2.078125 -2.6875 C 2.015625 -2.757812 1.914062 -2.796875 1.78125 -2.796875 C 1.6875 -2.796875 1.597656 -2.769531 1.515625 -2.71875 C 1.441406 -2.675781 1.40625 -2.601562 1.40625 -2.5 C 1.40625 -2.40625 1.4375 -2.332031 1.5 -2.28125 C 1.570312 -2.238281 1.664062 -2.203125 1.78125 -2.171875 L 2.59375 -1.953125 C 2.894531 -1.867188 3.101562 -1.753906 3.21875 -1.609375 C 3.34375 -1.460938 3.40625 -1.269531 3.40625 -1.03125 C 3.40625 -0.675781 3.273438 -0.398438 3.015625 -0.203125 C 2.753906 -0.00390625 2.351562 0.09375 1.8125 0.09375 C 1.238281 0.09375 0.820312 0 0.5625 -0.1875 C 0.3125 -0.382812 0.1875 -0.660156 0.1875 -1.015625 L 0.1875 -1.078125 L 1.421875 -1.078125 L 1.421875 -1.046875 C 1.421875 -0.898438 1.453125 -0.785156 1.515625 -0.703125 C 1.578125 -0.617188 1.679688 -0.578125 1.828125 -0.578125 C 1.960938 -0.578125 2.054688 -0.613281 2.109375 -0.6875 C 2.171875 -0.757812 2.203125 -0.832031 2.203125 -0.90625 C 2.203125 -0.988281 2.171875 -1.054688 2.109375 -1.109375 C 2.054688 -1.171875 1.914062 -1.234375 1.6875 -1.296875 L 1.171875 -1.4375 C 0.847656 -1.519531 0.613281 -1.632812 0.46875 -1.78125 C 0.332031 -1.9375 0.265625 -2.128906 0.265625 -2.359375 C 0.265625 -2.691406 0.398438 -2.945312 0.671875 -3.125 C 0.953125 -3.3125 1.335938 -3.40625 1.828125 -3.40625 C 2.335938 -3.40625 2.710938 -3.300781 2.953125 -3.09375 C 3.203125 -2.894531 3.332031 -2.625 3.34375 -2.28125 Z M 3.34375 -2.28125 "/></g></g></g></g><g fill="#c1c5c9" fill-opacity="1"><g transform="translate(13.161694, 40.9076)"><g><path d="M 0.84375 -1.671875 L 1.015625 -1.671875 L 1.65625 -0.1875 C 1.675781 -0.15625 1.695312 -0.128906 1.71875 -0.109375 C 1.738281 -0.0976562 1.757812 -0.09375 1.78125 -0.09375 L 1.84375 -0.078125 L 1.84375 0 C 1.757812 0 1.6875 0 1.625 0 C 1.570312 0 1.519531 0 1.46875 0 C 1.414062 0 1.359375 0 1.296875 0 C 1.234375 0 1.164062 0 1.09375 0 L 1.09375 -0.078125 L 1.21875 -0.09375 C 1.25 -0.09375 1.265625 -0.113281 1.265625 -0.15625 C 1.265625 -0.175781 1.257812 -0.203125 1.25 -0.234375 L 1.140625 -0.5 L 0.53125 -0.5 L 0.4375 -0.25 C 0.425781 -0.238281 0.421875 -0.222656 0.421875 -0.203125 C 0.421875 -0.191406 0.421875 -0.179688 0.421875 -0.171875 C 0.421875 -0.117188 0.445312 -0.09375 0.5 -0.09375 L 0.609375 -0.078125 L 0.609375 0 C 0.554688 0 0.503906 0 0.453125 0 C 0.398438 0 0.359375 0 0.328125 0 C 0.296875 0 0.253906 0 0.203125 0 C 0.160156 0 0.113281 0 0.0625 0 L 0.0625 -0.078125 L 0.125 -0.09375 C 0.15625 -0.09375 0.1875 -0.109375 0.21875 -0.140625 C 0.226562 -0.160156 0.238281 -0.179688 0.25 -0.203125 C 0.257812 -0.222656 0.269531 -0.25 0.28125 -0.28125 L 0.6875 -1.265625 C 0.707031 -1.296875 0.722656 -1.332031 0.734375 -1.375 C 0.753906 -1.425781 0.769531 -1.472656 0.78125 -1.515625 C 0.800781 -1.554688 0.816406 -1.59375 0.828125 -1.625 C 0.835938 -1.65625 0.84375 -1.671875 0.84375 -1.671875 Z M 0.828125 -1.25 L 0.59375 -0.640625 L 1.09375 -0.640625 Z M 0.828125 -1.25 "/></g></g></g><g fill="#c1c5c9" fill-opacity="1"><g transform="translate(15.30464, 40.9076)"><g><path d="M 0.859375 -1.65625 L 0.859375 -1.5625 L 0.765625 -1.5625 C 0.734375 -1.550781 0.707031 -1.539062 0.6875 -1.53125 C 0.675781 -1.53125 0.671875 -1.53125 0.671875 -1.53125 C 0.660156 -1.519531 0.648438 -1.5 0.640625 -1.46875 C 0.640625 -1.445312 0.640625 -1.40625 0.640625 -1.34375 L 0.640625 -0.3125 C 0.640625 -0.25 0.640625 -0.203125 0.640625 -0.171875 C 0.648438 -0.148438 0.660156 -0.132812 0.671875 -0.125 C 0.671875 -0.113281 0.675781 -0.109375 0.6875 -0.109375 C 0.707031 -0.109375 0.734375 -0.101562 0.765625 -0.09375 L 0.859375 -0.09375 L 0.859375 0 C 0.816406 0 0.757812 0 0.6875 0 C 0.625 0 0.554688 0 0.484375 0 C 0.441406 0 0.394531 0 0.34375 0 C 0.300781 0 0.253906 0 0.203125 0 C 0.160156 0 0.125 0 0.09375 0 L 0.09375 -0.09375 L 0.1875 -0.09375 C 0.21875 -0.101562 0.238281 -0.109375 0.25 -0.109375 C 0.257812 -0.109375 0.269531 -0.113281 0.28125 -0.125 C 0.289062 -0.132812 0.296875 -0.148438 0.296875 -0.171875 C 0.296875 -0.203125 0.296875 -0.25 0.296875 -0.3125 L 0.296875 -1.34375 C 0.296875 -1.40625 0.296875 -1.445312 0.296875 -1.46875 C 0.296875 -1.5 0.289062 -1.519531 0.28125 -1.53125 C 0.269531 -1.53125 0.257812 -1.53125 0.25 -1.53125 C 0.238281 -1.539062 0.21875 -1.550781 0.1875 -1.5625 L 0.09375 -1.5625 L 0.09375 -1.65625 C 0.132812 -1.65625 0.1875 -1.65625 0.25 -1.65625 C 0.320312 -1.65625 0.394531 -1.65625 0.46875 -1.65625 C 0.539062 -1.65625 0.609375 -1.65625 0.671875 -1.65625 C 0.742188 -1.65625 0.804688 -1.65625 0.859375 -1.65625 Z M 0.859375 -1.65625 "/></g></g></g><g fill="#c1c5c9" fill-opacity="1"><g transform="translate(16.501446, 40.9076)"><g><path d="M 0.859375 -0.09375 L 0.859375 0 C 0.804688 0 0.742188 0 0.671875 0 C 0.609375 0 0.546875 0 0.484375 0 C 0.441406 0 0.394531 0 0.34375 0 C 0.300781 0 0.253906 0 0.203125 0 C 0.160156 0 0.125 0 0.09375 0 L 0.09375 -0.09375 L 0.1875 -0.09375 C 0.21875 -0.101562 0.238281 -0.109375 0.25 -0.109375 C 0.257812 -0.109375 0.269531 -0.113281 0.28125 -0.125 C 0.289062 -0.132812 0.296875 -0.148438 0.296875 -0.171875 C 0.296875 -0.203125 0.296875 -0.25 0.296875 -0.3125 L 0.296875 -1.34375 C 0.296875 -1.40625 0.296875 -1.445312 0.296875 -1.46875 C 0.296875 -1.5 0.289062 -1.519531 0.28125 -1.53125 C 0.269531 -1.539062 0.257812 -1.546875 0.25 -1.546875 C 0.238281 -1.554688 0.21875 -1.5625 0.1875 -1.5625 L 0.09375 -1.5625 L 0.09375 -1.65625 C 0.132812 -1.65625 0.175781 -1.65625 0.21875 -1.65625 C 0.269531 -1.65625 0.316406 -1.65625 0.359375 -1.65625 C 0.398438 -1.65625 0.4375 -1.65625 0.46875 -1.65625 C 0.570312 -1.65625 0.675781 -1.65625 0.78125 -1.65625 C 0.882812 -1.65625 0.960938 -1.65625 1.015625 -1.65625 C 1.171875 -1.65625 1.285156 -1.625 1.359375 -1.5625 C 1.441406 -1.5 1.484375 -1.410156 1.484375 -1.296875 C 1.484375 -1.203125 1.445312 -1.113281 1.375 -1.03125 C 1.3125 -0.957031 1.222656 -0.90625 1.109375 -0.875 L 1.546875 -0.21875 C 1.554688 -0.195312 1.566406 -0.175781 1.578125 -0.15625 C 1.597656 -0.132812 1.613281 -0.125 1.625 -0.125 C 1.632812 -0.113281 1.644531 -0.101562 1.65625 -0.09375 C 1.664062 -0.09375 1.6875 -0.09375 1.71875 -0.09375 L 1.71875 0 C 1.6875 0 1.648438 0 1.609375 0 C 1.566406 0 1.523438 0 1.484375 0 C 1.453125 0 1.414062 0 1.375 0 C 1.34375 0 1.304688 0 1.265625 0 L 0.71875 -0.84375 L 0.734375 -0.875 C 0.734375 -0.875 0.738281 -0.875 0.75 -0.875 C 0.757812 -0.875 0.769531 -0.875 0.78125 -0.875 C 0.882812 -0.875 0.96875 -0.90625 1.03125 -0.96875 C 1.09375 -1.039062 1.125 -1.128906 1.125 -1.234375 C 1.125 -1.328125 1.09375 -1.398438 1.03125 -1.453125 C 0.976562 -1.503906 0.898438 -1.53125 0.796875 -1.53125 C 0.773438 -1.53125 0.75 -1.53125 0.71875 -1.53125 C 0.6875 -1.53125 0.660156 -1.523438 0.640625 -1.515625 L 0.640625 -0.3125 C 0.640625 -0.25 0.640625 -0.203125 0.640625 -0.171875 C 0.648438 -0.148438 0.660156 -0.132812 0.671875 -0.125 C 0.671875 -0.113281 0.675781 -0.109375 0.6875 -0.109375 C 0.707031 -0.109375 0.734375 -0.101562 0.765625 -0.09375 Z M 0.859375 -0.09375 "/></g></g></g><g fill="#c1c5c9" fill-opacity="1"><g transform="translate(18.508186, 40.9076)"><g><path d="M 0.5 -1.65625 C 0.519531 -1.65625 0.550781 -1.65625 0.59375 -1.65625 C 0.644531 -1.65625 0.691406 -1.65625 0.734375 -1.65625 C 0.785156 -1.65625 0.828125 -1.65625 0.859375 -1.65625 L 0.859375 -1.5625 L 0.765625 -1.5625 C 0.734375 -1.550781 0.707031 -1.539062 0.6875 -1.53125 C 0.675781 -1.53125 0.671875 -1.53125 0.671875 -1.53125 C 0.660156 -1.519531 0.648438 -1.5 0.640625 -1.46875 C 0.640625 -1.445312 0.640625 -1.40625 0.640625 -1.34375 L 0.640625 -0.140625 C 0.671875 -0.140625 0.710938 -0.140625 0.765625 -0.140625 C 0.816406 -0.140625 0.875 -0.140625 0.9375 -0.140625 C 0.988281 -0.140625 1.035156 -0.140625 1.078125 -0.140625 C 1.128906 -0.148438 1.171875 -0.15625 1.203125 -0.15625 C 1.234375 -0.164062 1.25 -0.171875 1.25 -0.171875 L 1.3125 -0.421875 L 1.40625 -0.421875 L 1.375 -0.015625 L 1.375 0 C 1.320312 0 1.257812 0 1.1875 0 C 1.113281 0.0078125 1.035156 0.015625 0.953125 0.015625 C 0.878906 0.015625 0.816406 0.0078125 0.765625 0 C 0.710938 0 0.660156 0 0.609375 0 C 0.566406 0 0.519531 0 0.46875 0 C 0.414062 0 0.363281 0 0.3125 0 C 0.269531 0 0.222656 0 0.171875 0 L 0.171875 -0.046875 L 0.234375 -0.078125 C 0.242188 -0.0859375 0.25 -0.09375 0.25 -0.09375 C 0.257812 -0.101562 0.269531 -0.109375 0.28125 -0.109375 C 0.289062 -0.140625 0.296875 -0.179688 0.296875 -0.234375 L 0.296875 -1.34375 C 0.296875 -1.40625 0.296875 -1.445312 0.296875 -1.46875 C 0.296875 -1.5 0.289062 -1.519531 0.28125 -1.53125 C 0.269531 -1.539062 0.257812 -1.546875 0.25 -1.546875 C 0.238281 -1.546875 0.21875 -1.550781 0.1875 -1.5625 L 0.09375 -1.5625 L 0.09375 -1.65625 C 0.15625 -1.65625 0.21875 -1.65625 0.28125 -1.65625 C 0.34375 -1.65625 0.414062 -1.65625 0.5 -1.65625 Z M 0.5 -1.65625 "/></g></g></g><g fill="#c1c5c9" fill-opacity="1"><g transform="translate(20.244949, 40.9076)"><g><path d="M 0.859375 -1.65625 L 0.859375 -1.5625 L 0.765625 -1.5625 C 0.734375 -1.550781 0.707031 -1.539062 0.6875 -1.53125 C 0.675781 -1.53125 0.671875 -1.53125 0.671875 -1.53125 C 0.660156 -1.519531 0.648438 -1.5 0.640625 -1.46875 C 0.640625 -1.445312 0.640625 -1.40625 0.640625 -1.34375 L 0.640625 -0.3125 C 0.640625 -0.25 0.640625 -0.203125 0.640625 -0.171875 C 0.648438 -0.148438 0.660156 -0.132812 0.671875 -0.125 C 0.671875 -0.113281 0.675781 -0.109375 0.6875 -0.109375 C 0.707031 -0.109375 0.734375 -0.101562 0.765625 -0.09375 L 0.859375 -0.09375 L 0.859375 0 C 0.816406 0 0.757812 0 0.6875 0 C 0.625 0 0.554688 0 0.484375 0 C 0.441406 0 0.394531 0 0.34375 0 C 0.300781 0 0.253906 0 0.203125 0 C 0.160156 0 0.125 0 0.09375 0 L 0.09375 -0.09375 L 0.1875 -0.09375 C 0.21875 -0.101562 0.238281 -0.109375 0.25 -0.109375 C 0.257812 -0.109375 0.269531 -0.113281 0.28125 -0.125 C 0.289062 -0.132812 0.296875 -0.148438 0.296875 -0.171875 C 0.296875 -0.203125 0.296875 -0.25 0.296875 -0.3125 L 0.296875 -1.34375 C 0.296875 -1.40625 0.296875 -1.445312 0.296875 -1.46875 C 0.296875 -1.5 0.289062 -1.519531 0.28125 -1.53125 C 0.269531 -1.53125 0.257812 -1.53125 0.25 -1.53125 C 0.238281 -1.539062 0.21875 -1.550781 0.1875 -1.5625 L 0.09375 -1.5625 L 0.09375 -1.65625 C 0.132812 -1.65625 0.1875 -1.65625 0.25 -1.65625 C 0.320312 -1.65625 0.394531 -1.65625 0.46875 -1.65625 C 0.539062 -1.65625 0.609375 -1.65625 0.671875 -1.65625 C 0.742188 -1.65625 0.804688 -1.65625 0.859375 -1.65625 Z M 0.859375 -1.65625 "/></g></g></g><g fill="#c1c5c9" fill-opacity="1"><g transform="translate(21.441754, 40.9076)"><g><path d="M 0.078125 -1.5625 L 0.078125 -1.65625 C 0.128906 -1.65625 0.175781 -1.65625 0.21875 -1.65625 C 0.269531 -1.65625 0.320312 -1.65625 0.375 -1.65625 C 0.40625 -1.65625 0.4375 -1.65625 0.46875 -1.65625 C 0.507812 -1.65625 0.546875 -1.65625 0.578125 -1.65625 C 0.617188 -1.601562 0.65625 -1.550781 0.6875 -1.5 C 0.726562 -1.457031 0.773438 -1.40625 0.828125 -1.34375 L 1.59375 -0.453125 L 1.59375 -1.34375 C 1.59375 -1.414062 1.585938 -1.460938 1.578125 -1.484375 C 1.578125 -1.515625 1.570312 -1.53125 1.5625 -1.53125 C 1.5625 -1.539062 1.550781 -1.546875 1.53125 -1.546875 C 1.519531 -1.554688 1.503906 -1.5625 1.484375 -1.5625 L 1.390625 -1.5625 L 1.390625 -1.65625 C 1.429688 -1.65625 1.472656 -1.65625 1.515625 -1.65625 C 1.566406 -1.65625 1.617188 -1.65625 1.671875 -1.65625 C 1.710938 -1.65625 1.753906 -1.65625 1.796875 -1.65625 C 1.847656 -1.65625 1.894531 -1.65625 1.9375 -1.65625 L 1.9375 -1.5625 L 1.859375 -1.5625 C 1.828125 -1.5625 1.800781 -1.554688 1.78125 -1.546875 C 1.769531 -1.546875 1.765625 -1.539062 1.765625 -1.53125 C 1.753906 -1.519531 1.742188 -1.5 1.734375 -1.46875 C 1.734375 -1.4375 1.734375 -1.394531 1.734375 -1.34375 L 1.734375 -0.21875 C 1.734375 -0.175781 1.734375 -0.132812 1.734375 -0.09375 C 1.742188 -0.0507812 1.75 -0.0078125 1.75 0.03125 L 1.734375 0.03125 L 1.53125 0 L 1.40625 -0.125 L 1.234375 -0.3125 L 0.4375 -1.28125 L 0.4375 -0.3125 C 0.4375 -0.25 0.4375 -0.203125 0.4375 -0.171875 C 0.445312 -0.148438 0.453125 -0.132812 0.453125 -0.125 C 0.460938 -0.113281 0.472656 -0.101562 0.484375 -0.09375 C 0.492188 -0.09375 0.515625 -0.09375 0.546875 -0.09375 L 0.640625 -0.078125 L 0.640625 0 C 0.628906 0 0.59375 0 0.53125 0 C 0.476562 0 0.421875 0 0.359375 0 C 0.316406 0 0.269531 0 0.21875 0 C 0.175781 0 0.128906 0 0.078125 0 L 0.078125 -0.078125 L 0.171875 -0.09375 C 0.210938 -0.09375 0.238281 -0.09375 0.25 -0.09375 C 0.257812 -0.101562 0.265625 -0.113281 0.265625 -0.125 C 0.273438 -0.132812 0.28125 -0.148438 0.28125 -0.171875 C 0.289062 -0.203125 0.296875 -0.25 0.296875 -0.3125 L 0.296875 -1.34375 C 0.296875 -1.414062 0.289062 -1.460938 0.28125 -1.484375 C 0.28125 -1.515625 0.273438 -1.53125 0.265625 -1.53125 C 0.253906 -1.539062 0.242188 -1.546875 0.234375 -1.546875 C 0.222656 -1.554688 0.203125 -1.5625 0.171875 -1.5625 Z M 0.078125 -1.5625 "/></g></g></g><g fill="#c1c5c9" fill-opacity="1"><g transform="translate(23.718473, 40.9076)"><g><path d="M 1.140625 -1.65625 C 1.171875 -1.65625 1.203125 -1.65625 1.234375 -1.65625 C 1.265625 -1.65625 1.304688 -1.65625 1.359375 -1.65625 L 1.375 -1.640625 L 1.34375 -1.296875 L 1.25 -1.296875 L 1.234375 -1.46875 C 1.234375 -1.488281 1.203125 -1.503906 1.140625 -1.515625 C 1.109375 -1.515625 1.078125 -1.515625 1.046875 -1.515625 C 1.015625 -1.515625 0.984375 -1.515625 0.953125 -1.515625 C 0.878906 -1.515625 0.816406 -1.515625 0.765625 -1.515625 C 0.710938 -1.515625 0.671875 -1.515625 0.640625 -1.515625 L 0.640625 -0.921875 C 0.660156 -0.921875 0.675781 -0.921875 0.6875 -0.921875 C 0.707031 -0.921875 0.742188 -0.921875 0.796875 -0.921875 L 0.96875 -0.921875 C 1.007812 -0.921875 1.039062 -0.921875 1.0625 -0.921875 C 1.09375 -0.929688 1.109375 -0.945312 1.109375 -0.96875 L 1.125 -1.109375 L 1.21875 -1.109375 C 1.21875 -1.066406 1.21875 -1.023438 1.21875 -0.984375 C 1.21875 -0.941406 1.21875 -0.894531 1.21875 -0.84375 C 1.21875 -0.800781 1.21875 -0.757812 1.21875 -0.71875 C 1.21875 -0.675781 1.21875 -0.632812 1.21875 -0.59375 L 1.125 -0.59375 L 1.109375 -0.703125 C 1.109375 -0.742188 1.09375 -0.769531 1.0625 -0.78125 C 1.039062 -0.789062 1.007812 -0.796875 0.96875 -0.796875 L 0.796875 -0.796875 C 0.765625 -0.796875 0.734375 -0.796875 0.703125 -0.796875 C 0.679688 -0.796875 0.660156 -0.796875 0.640625 -0.796875 L 0.640625 -0.140625 C 0.671875 -0.140625 0.710938 -0.140625 0.765625 -0.140625 C 0.828125 -0.140625 0.890625 -0.140625 0.953125 -0.140625 C 0.992188 -0.140625 1.035156 -0.140625 1.078125 -0.140625 C 1.128906 -0.140625 1.171875 -0.144531 1.203125 -0.15625 C 1.234375 -0.164062 1.25 -0.171875 1.25 -0.171875 L 1.3125 -0.40625 L 1.40625 -0.40625 L 1.375 -0.015625 L 1.375 0 C 1.320312 0 1.257812 0 1.1875 0 C 1.113281 0.0078125 1.035156 0.015625 0.953125 0.015625 C 0.890625 0.015625 0.84375 0.0078125 0.8125 0 C 0.78125 0 0.738281 0 0.6875 0 C 0.644531 0 0.601562 0 0.5625 0 C 0.53125 0 0.5 0 0.46875 0 C 0.414062 0 0.363281 0 0.3125 0 C 0.269531 0 0.222656 0 0.171875 0 L 0.171875 -0.046875 L 0.234375 -0.078125 C 0.253906 -0.0976562 0.269531 -0.109375 0.28125 -0.109375 C 0.289062 -0.140625 0.296875 -0.179688 0.296875 -0.234375 L 0.296875 -1.34375 C 0.296875 -1.414062 0.289062 -1.460938 0.28125 -1.484375 C 0.28125 -1.515625 0.28125 -1.53125 0.28125 -1.53125 C 0.269531 -1.539062 0.257812 -1.546875 0.25 -1.546875 C 0.238281 -1.554688 0.21875 -1.5625 0.1875 -1.5625 L 0.09375 -1.5625 L 0.09375 -1.65625 C 0.15625 -1.65625 0.21875 -1.65625 0.28125 -1.65625 C 0.351562 -1.65625 0.425781 -1.65625 0.5 -1.65625 C 0.5625 -1.65625 0.625 -1.65625 0.6875 -1.65625 C 0.757812 -1.65625 0.828125 -1.65625 0.890625 -1.65625 C 0.953125 -1.65625 1.003906 -1.65625 1.046875 -1.65625 C 1.097656 -1.65625 1.128906 -1.65625 1.140625 -1.65625 Z M 1.140625 -1.65625 "/></g></g></g><g fill="#c1c5c9" fill-opacity="1"><g transform="translate(25.455236, 40.9076)"><g><path d="M 0.125 -0.75 L 0.75 -0.75 L 0.765625 -0.71875 C 0.753906 -0.6875 0.738281 -0.644531 0.71875 -0.59375 C 0.707031 -0.550781 0.695312 -0.507812 0.6875 -0.46875 L 0.0625 -0.46875 L 0.03125 -0.5 C 0.0507812 -0.539062 0.0664062 -0.582031 0.078125 -0.625 C 0.0976562 -0.664062 0.113281 -0.707031 0.125 -0.75 Z M 0.125 -0.75 "/></g></g></g><g fill="#c1c5c9" fill-opacity="1"><g transform="translate(26.515836, 40.9076)"><g><path d="M 0.5 0 C 0.46875 0 0.414062 0 0.34375 0 C 0.28125 0 0.222656 0 0.171875 0 L 0.171875 -0.046875 L 0.21875 -0.078125 C 0.25 -0.0976562 0.265625 -0.109375 0.265625 -0.109375 C 0.285156 -0.140625 0.296875 -0.179688 0.296875 -0.234375 L 0.296875 -1.34375 C 0.296875 -1.414062 0.289062 -1.460938 0.28125 -1.484375 C 0.28125 -1.515625 0.273438 -1.53125 0.265625 -1.53125 C 0.253906 -1.539062 0.242188 -1.546875 0.234375 -1.546875 C 0.222656 -1.554688 0.203125 -1.5625 0.171875 -1.5625 L 0.078125 -1.5625 L 0.078125 -1.65625 C 0.148438 -1.65625 0.21875 -1.65625 0.28125 -1.65625 C 0.34375 -1.65625 0.410156 -1.65625 0.484375 -1.65625 C 0.554688 -1.65625 0.648438 -1.65625 0.765625 -1.65625 C 0.878906 -1.65625 0.988281 -1.65625 1.09375 -1.65625 C 1.375 -1.65625 1.582031 -1.59375 1.71875 -1.46875 C 1.851562 -1.34375 1.921875 -1.15625 1.921875 -0.90625 C 1.921875 -0.757812 1.890625 -0.628906 1.828125 -0.515625 C 1.773438 -0.398438 1.703125 -0.300781 1.609375 -0.21875 C 1.523438 -0.144531 1.421875 -0.0859375 1.296875 -0.046875 C 1.179688 -0.015625 1.054688 0 0.921875 0 C 0.910156 0 0.878906 0 0.828125 0 C 0.785156 0 0.734375 0 0.671875 0 C 0.609375 0 0.550781 0 0.5 0 Z M 0.640625 -1.53125 L 0.640625 -0.140625 C 0.660156 -0.140625 0.6875 -0.132812 0.71875 -0.125 C 0.75 -0.125 0.789062 -0.125 0.84375 -0.125 C 1.070312 -0.125 1.242188 -0.179688 1.359375 -0.296875 C 1.484375 -0.410156 1.546875 -0.597656 1.546875 -0.859375 C 1.546875 -1.023438 1.515625 -1.15625 1.453125 -1.25 C 1.398438 -1.351562 1.316406 -1.425781 1.203125 -1.46875 C 1.097656 -1.507812 0.957031 -1.53125 0.78125 -1.53125 C 0.757812 -1.53125 0.734375 -1.53125 0.703125 -1.53125 C 0.679688 -1.53125 0.660156 -1.53125 0.640625 -1.53125 Z M 0.640625 -1.53125 "/></g></g></g><g fill="#c1c5c9" fill-opacity="1"><g transform="translate(28.792556, 40.9076)"><g><path d="M 0.484375 0 C 0.429688 0 0.378906 0 0.328125 0 C 0.273438 0 0.222656 0 0.171875 0 L 0.171875 -0.046875 L 0.234375 -0.078125 C 0.253906 -0.0976562 0.269531 -0.109375 0.28125 -0.109375 C 0.289062 -0.140625 0.296875 -0.179688 0.296875 -0.234375 L 0.296875 -1.34375 C 0.296875 -1.414062 0.289062 -1.460938 0.28125 -1.484375 C 0.28125 -1.515625 0.28125 -1.53125 0.28125 -1.53125 C 0.269531 -1.539062 0.257812 -1.546875 0.25 -1.546875 C 0.238281 -1.554688 0.21875 -1.5625 0.1875 -1.5625 L 0.09375 -1.5625 L 0.09375 -1.65625 C 0.164062 -1.65625 0.234375 -1.65625 0.296875 -1.65625 C 0.359375 -1.65625 0.421875 -1.65625 0.484375 -1.65625 C 0.535156 -1.65625 0.59375 -1.65625 0.65625 -1.65625 C 0.71875 -1.65625 0.773438 -1.65625 0.828125 -1.65625 C 0.890625 -1.65625 0.941406 -1.65625 0.984375 -1.65625 C 1.285156 -1.65625 1.4375 -1.546875 1.4375 -1.328125 C 1.4375 -1.253906 1.414062 -1.191406 1.375 -1.140625 C 1.332031 -1.085938 1.28125 -1.046875 1.21875 -1.015625 C 1.15625 -0.984375 1.082031 -0.953125 1 -0.921875 C 1.15625 -0.910156 1.273438 -0.875 1.359375 -0.8125 C 1.441406 -0.75 1.484375 -0.648438 1.484375 -0.515625 C 1.484375 -0.410156 1.453125 -0.316406 1.390625 -0.234375 C 1.335938 -0.160156 1.265625 -0.101562 1.171875 -0.0625 C 1.078125 -0.0195312 0.96875 0 0.84375 0 C 0.820312 0 0.785156 0 0.734375 0 C 0.691406 0 0.644531 0 0.59375 0 C 0.550781 0 0.515625 0 0.484375 0 Z M 0.640625 -1.53125 L 0.640625 -0.96875 L 0.71875 -0.96875 C 0.84375 -0.96875 0.929688 -0.992188 0.984375 -1.046875 C 1.046875 -1.097656 1.078125 -1.175781 1.078125 -1.28125 C 1.078125 -1.375 1.050781 -1.4375 1 -1.46875 C 0.957031 -1.507812 0.890625 -1.53125 0.796875 -1.53125 C 0.765625 -1.53125 0.734375 -1.53125 0.703125 -1.53125 C 0.679688 -1.53125 0.660156 -1.53125 0.640625 -1.53125 Z M 0.640625 -0.84375 L 0.640625 -0.140625 C 0.660156 -0.140625 0.675781 -0.132812 0.6875 -0.125 C 0.707031 -0.125 0.738281 -0.125 0.78125 -0.125 C 1.007812 -0.125 1.125 -0.25 1.125 -0.5 C 1.125 -0.613281 1.09375 -0.695312 1.03125 -0.75 C 0.96875 -0.8125 0.863281 -0.84375 0.71875 -0.84375 Z M 0.640625 -0.84375 "/></g></g></g><g fill="#c1c5c9" fill-opacity="1"><g transform="translate(30.665524, 40.9076)"><g><path d="M 0.078125 -1.5625 L 0.078125 -1.65625 C 0.128906 -1.65625 0.175781 -1.65625 0.21875 -1.65625 C 0.269531 -1.65625 0.320312 -1.65625 0.375 -1.65625 C 0.425781 -1.65625 0.472656 -1.65625 0.515625 -1.65625 C 0.566406 -1.65625 0.613281 -1.65625 0.65625 -1.65625 C 0.707031 -1.550781 0.765625 -1.429688 0.828125 -1.296875 C 0.890625 -1.160156 0.957031 -1.019531 1.03125 -0.875 C 1.101562 -0.738281 1.171875 -0.601562 1.234375 -0.46875 L 1.671875 -1.375 C 1.703125 -1.425781 1.722656 -1.472656 1.734375 -1.515625 C 1.753906 -1.554688 1.773438 -1.601562 1.796875 -1.65625 C 1.804688 -1.65625 1.828125 -1.65625 1.859375 -1.65625 C 1.898438 -1.65625 1.9375 -1.65625 1.96875 -1.65625 C 2.007812 -1.65625 2.046875 -1.65625 2.078125 -1.65625 C 2.109375 -1.65625 2.140625 -1.65625 2.171875 -1.65625 C 2.210938 -1.65625 2.25 -1.65625 2.28125 -1.65625 C 2.320312 -1.65625 2.347656 -1.65625 2.359375 -1.65625 L 2.359375 -1.5625 L 2.265625 -1.5625 C 2.234375 -1.5625 2.210938 -1.554688 2.203125 -1.546875 C 2.191406 -1.546875 2.179688 -1.539062 2.171875 -1.53125 C 2.171875 -1.519531 2.164062 -1.5 2.15625 -1.46875 C 2.15625 -1.445312 2.15625 -1.40625 2.15625 -1.34375 L 2.15625 -0.3125 C 2.15625 -0.25 2.15625 -0.203125 2.15625 -0.171875 C 2.164062 -0.148438 2.171875 -0.132812 2.171875 -0.125 C 2.179688 -0.113281 2.191406 -0.109375 2.203125 -0.109375 C 2.210938 -0.109375 2.234375 -0.101562 2.265625 -0.09375 L 2.359375 -0.09375 L 2.359375 0 C 2.316406 0 2.257812 0 2.1875 0 C 2.125 0 2.0625 0 2 0 C 1.914062 0 1.835938 0 1.765625 0 C 1.703125 0 1.644531 0 1.59375 0 L 1.59375 -0.09375 L 1.6875 -0.09375 C 1.71875 -0.101562 1.738281 -0.109375 1.75 -0.109375 C 1.769531 -0.109375 1.78125 -0.113281 1.78125 -0.125 C 1.789062 -0.132812 1.796875 -0.148438 1.796875 -0.171875 C 1.804688 -0.203125 1.8125 -0.25 1.8125 -0.3125 L 1.8125 -1.328125 L 1.796875 -1.328125 L 1.25 -0.1875 C 1.238281 -0.164062 1.222656 -0.128906 1.203125 -0.078125 C 1.191406 -0.0351562 1.175781 0 1.15625 0.03125 L 1.078125 0.03125 C 1.066406 -0.0078125 1.050781 -0.046875 1.03125 -0.078125 C 1.019531 -0.117188 1.003906 -0.148438 0.984375 -0.171875 L 0.4375 -1.328125 L 0.421875 -1.328125 L 0.421875 -0.3125 C 0.421875 -0.25 0.421875 -0.203125 0.421875 -0.171875 C 0.429688 -0.148438 0.441406 -0.132812 0.453125 -0.125 C 0.453125 -0.113281 0.457031 -0.101562 0.46875 -0.09375 C 0.488281 -0.09375 0.515625 -0.09375 0.546875 -0.09375 L 0.640625 -0.078125 L 0.640625 0 C 0.585938 0 0.535156 0 0.484375 0 C 0.441406 0 0.398438 0 0.359375 0 C 0.316406 0 0.269531 0 0.21875 0 C 0.175781 0 0.128906 0 0.078125 0 L 0.078125 -0.078125 L 0.171875 -0.09375 C 0.203125 -0.09375 0.222656 -0.09375 0.234375 -0.09375 C 0.242188 -0.101562 0.253906 -0.113281 0.265625 -0.125 C 0.273438 -0.132812 0.28125 -0.148438 0.28125 -0.171875 C 0.28125 -0.203125 0.28125 -0.25 0.28125 -0.3125 L 0.28125 -1.34375 C 0.28125 -1.414062 0.273438 -1.460938 0.265625 -1.484375 C 0.265625 -1.503906 0.265625 -1.519531 0.265625 -1.53125 C 0.253906 -1.539062 0.242188 -1.546875 0.234375 -1.546875 C 0.222656 -1.554688 0.203125 -1.5625 0.171875 -1.5625 Z M 0.078125 -1.5625 "/></g></g></g><g fill="#c1c5c9" fill-opacity="1"><g transform="translate(33.348426, 40.9076)"><g><path d="M 0.796875 -1.6875 C 0.878906 -1.6875 0.957031 -1.679688 1.03125 -1.671875 C 1.101562 -1.660156 1.175781 -1.640625 1.25 -1.609375 L 1.265625 -1.578125 C 1.253906 -1.546875 1.242188 -1.5 1.234375 -1.4375 C 1.234375 -1.375 1.234375 -1.304688 1.234375 -1.234375 L 1.125 -1.234375 L 1.109375 -1.4375 C 1.078125 -1.476562 1.03125 -1.507812 0.96875 -1.53125 C 0.90625 -1.550781 0.847656 -1.5625 0.796875 -1.5625 C 0.679688 -1.5625 0.59375 -1.535156 0.53125 -1.484375 C 0.476562 -1.429688 0.453125 -1.363281 0.453125 -1.28125 C 0.453125 -1.226562 0.472656 -1.179688 0.515625 -1.140625 C 0.554688 -1.097656 0.625 -1.0625 0.71875 -1.03125 L 1 -0.96875 C 1.101562 -0.9375 1.1875 -0.882812 1.25 -0.8125 C 1.320312 -0.75 1.359375 -0.660156 1.359375 -0.546875 C 1.359375 -0.441406 1.335938 -0.351562 1.296875 -0.28125 C 1.265625 -0.207031 1.210938 -0.144531 1.140625 -0.09375 C 1.078125 -0.0507812 1 -0.0195312 0.90625 0 C 0.820312 0.03125 0.734375 0.046875 0.640625 0.046875 C 0.554688 0.046875 0.46875 0.0351562 0.375 0.015625 C 0.289062 -0.00390625 0.210938 -0.0351562 0.140625 -0.078125 C 0.148438 -0.109375 0.15625 -0.15625 0.15625 -0.21875 C 0.164062 -0.289062 0.171875 -0.382812 0.171875 -0.5 L 0.265625 -0.5 L 0.296875 -0.28125 C 0.316406 -0.238281 0.347656 -0.203125 0.390625 -0.171875 C 0.429688 -0.148438 0.476562 -0.128906 0.53125 -0.109375 C 0.582031 -0.0976562 0.628906 -0.09375 0.671875 -0.09375 C 0.773438 -0.09375 0.863281 -0.117188 0.9375 -0.171875 C 1.019531 -0.222656 1.0625 -0.300781 1.0625 -0.40625 C 1.0625 -0.519531 0.992188 -0.597656 0.859375 -0.640625 L 0.515625 -0.734375 C 0.410156 -0.765625 0.320312 -0.816406 0.25 -0.890625 C 0.1875 -0.960938 0.15625 -1.050781 0.15625 -1.15625 C 0.15625 -1.332031 0.210938 -1.460938 0.328125 -1.546875 C 0.441406 -1.640625 0.597656 -1.6875 0.796875 -1.6875 Z M 0.796875 -1.6875 "/></g></g></g><g clip-path="url(#7b9015412f)"><path fill="#ce181e" d="M 25.296875 29.292969 C 26.421875 29.292969 27.441406 29.195312 28.359375 29.003906 C 29.273438 28.808594 30.117188 28.53125 30.878906 28.171875 C 31.640625 27.808594 32.347656 27.371094 33.003906 26.855469 C 33.652344 26.347656 34.285156 25.765625 34.878906 25.121094 L 31.605469 21.816406 C 23.214844 29.816406 13.488281 24.070312 13.894531 13.40625 C 13.113281 15.855469 13.121094 18.65625 13.898438 21.105469 C 14.289062 22.304688 14.839844 23.40625 15.550781 24.402344 C 16.269531 25.40625 17.121094 26.265625 18.109375 26.996094 C 19.101562 27.726562 20.203125 28.285156 21.410156 28.6875 C 22.621094 29.085938 23.917969 29.289062 25.296875 29.292969 " fill-opacity="1" fill-rule="nonzero"/></g><g clip-path="url(#5267989fef)"><path fill="#c1c5c9" d="M 21.84375 23.484375 C 21.375 23.175781 20.953125 22.808594 20.574219 22.386719 C 19.972656 21.710938 19.511719 20.933594 19.183594 20.046875 C 18.519531 18.261719 18.515625 16.101562 19.195312 14.316406 C 19.523438 13.4375 19.996094 12.671875 20.597656 12.003906 C 21.203125 11.335938 21.921875 10.820312 22.746094 10.441406 C 23.566406 10.0625 24.476562 9.875 25.464844 9.867188 C 26.238281 9.867188 26.96875 9.972656 27.652344 10.183594 C 28.335938 10.398438 28.988281 10.703125 29.609375 11.089844 C 30.234375 11.488281 30.839844 11.953125 31.4375 12.503906 L 34.710938 8.734375 C 33.992188 8.015625 33.203125 7.386719 32.335938 6.847656 C 31.46875 6.308594 30.476562 5.890625 29.363281 5.589844 C 28.246094 5.285156 26.960938 5.132812 25.5 5.128906 C 19.082031 5.152344 13.53125 10.382812 15.496094 17.277344 C 16.359375 20.316406 18.53125 22.984375 21.84375 23.484375 Z M 21.84375 23.484375 " fill-opacity="1" fill-rule="nonzero"/></g><path fill="#0a0203" d="M 20.773438 22.875 C 20.734375 22.875 20.699219 22.867188 20.664062 22.847656 C 20.585938 22.804688 20.546875 22.738281 20.546875 22.652344 L 20.546875 18.386719 C 20.546875 18.238281 20.621094 18.164062 20.769531 18.164062 C 20.917969 18.164062 20.992188 18.238281 20.992188 18.386719 L 20.992188 22.25 L 23.3125 20.824219 C 23.441406 20.746094 23.542969 20.773438 23.621094 20.898438 C 23.703125 21.027344 23.675781 21.128906 23.550781 21.207031 L 20.890625 22.84375 C 20.855469 22.863281 20.816406 22.875 20.773438 22.875 Z M 20.773438 22.875 " fill-opacity="1" fill-rule="nonzero"/><g clip-path="url(#8f7fd22380)"><path fill="#0a0203" d="M 25.898438 23.433594 C 25.835938 23.433594 25.785156 23.414062 25.742188 23.375 L 17.3125 15.4375 C 17.25 15.378906 17.226562 15.304688 17.25 15.21875 C 17.273438 15.132812 17.332031 15.078125 17.417969 15.058594 L 32.808594 11.511719 C 32.90625 11.492188 32.980469 11.523438 33.035156 11.601562 C 33.089844 11.679688 33.09375 11.761719 33.046875 11.84375 L 26.085938 23.324219 C 26.050781 23.386719 25.996094 23.421875 25.925781 23.433594 Z M 17.925781 15.398438 L 25.847656 22.855469 L 32.390625 12.066406 Z M 17.925781 15.398438 " fill-opacity="1" fill-rule="nonzero"/></g><g clip-path="url(#292c72e520)"><path fill="#0a0203" d="M 20.773438 18.609375 C 20.65625 18.613281 20.582031 18.554688 20.554688 18.441406 C 20.527344 18.332031 20.5625 18.246094 20.664062 18.191406 L 32.75 11.535156 C 32.804688 11.5 32.863281 11.488281 32.925781 11.503906 C 32.988281 11.519531 33.035156 11.558594 33.066406 11.613281 C 33.097656 11.671875 33.101562 11.730469 33.082031 11.792969 C 33.0625 11.851562 33.023438 11.898438 32.964844 11.925781 L 20.878906 18.582031 C 20.847656 18.601562 20.8125 18.609375 20.773438 18.609375 Z M 20.773438 18.609375 " fill-opacity="1" fill-rule="nonzero"/></g><g clip-path="url(#bf2d577b0b)"><path fill="#ce181e" d="M 15.136719 21.683594 C 15.019531 21.683594 14.945312 21.625 14.917969 21.511719 C 14.890625 21.402344 14.925781 21.316406 15.027344 21.261719 L 19.222656 18.992188 C 19.347656 18.933594 19.445312 18.964844 19.511719 19.089844 C 19.582031 19.214844 19.554688 19.3125 19.433594 19.386719 L 15.242188 21.65625 C 15.207031 21.671875 15.171875 21.683594 15.136719 21.683594 Z M 15.136719 21.683594 " fill-opacity="1" fill-rule="nonzero"/></g><path fill="#ce181e" d="M 17.078125 22.355469 C 16.964844 22.355469 16.890625 22.300781 16.863281 22.191406 C 16.835938 22.078125 16.871094 21.996094 16.96875 21.9375 L 19.113281 20.734375 C 19.164062 20.699219 19.222656 20.691406 19.285156 20.707031 C 19.347656 20.722656 19.394531 20.757812 19.425781 20.816406 C 19.457031 20.871094 19.460938 20.929688 19.441406 20.988281 C 19.425781 21.050781 19.386719 21.09375 19.332031 21.125 L 17.1875 22.328125 C 17.152344 22.347656 17.117188 22.355469 17.078125 22.355469 Z M 17.078125 22.355469 " fill-opacity="1" fill-rule="nonzero"/><path fill="#ce181e" d="M 18.824219 22.875 C 18.707031 22.875 18.636719 22.816406 18.609375 22.707031 C 18.578125 22.59375 18.617188 22.511719 18.71875 22.453125 L 19.222656 22.183594 C 19.34375 22.132812 19.4375 22.167969 19.503906 22.285156 C 19.566406 22.402344 19.542969 22.5 19.433594 22.574219 L 18.929688 22.84375 C 18.898438 22.863281 18.863281 22.875 18.824219 22.875 Z M 18.824219 22.875 " fill-opacity="1" fill-rule="nonzero"/></svg>